<?xml version="1.0" encoding="utf-8"?>
<!DOCTYPE svg PUBLIC "-//W3C//DTD SVG 1.0//EN" "http://www.w3.org/TR/2001/REC-SVG-20010904/DTD/svg10.dtd">
<svg version="1.0" xmlns="http://www.w3.org/2000/svg" width="290px" height="290px" viewBox="0 0 290 290" preserveAspectRatio="xMidYMid meet">
 <g fill="#000000">
  <path d="M67 289 c-19.9 -1.2 -29.8 -4.4 -41.7 -13.4 -10.4 -7.9 -18.2 -19.8 -21.8 -33.1 -2.9 -10.7 -3.7 -40.6 -3.2 -113.5 0.6 -71.2 0.7 -74.1 4.8 -86.7 5.3 -16.3 20.8 -31.8 37.2 -37.2 13.8 -4.5 15.9 -4.6 102.7 -4.6 86.8 0 88.9 0.1 102.7 4.6 16.4 5.4 31.8 20.8 37.2 37.2 4.5 13.8 4.6 15.9 4.6 102.7 0 86.8 -0.1 88.9 -4.6 102.7 -1.1 3.4 -3.8 8.9 -5.9 12.3 -9.9 15.1 -23.5 24 -43 28 -6.7 1.4 -148.6 2.2 -169 1z"/>
 </g>
</svg>